<svg width="245" height="69" viewBox="0 0 245 69" fill="none" xmlns="http://www.w3.org/2000/svg">
<path d="M14.9146 0V55.3553C14.9146 58.0964 15.0724 60.1599 15.388 61.5561C15.7037 62.9523 16.3745 63.8968 17.4003 64.3896C18.4262 64.8824 19.9354 65.1801 21.9378 65.293V68.1676H0.15783V65.293C2.25889 65.1801 3.83715 64.8824 4.89261 64.3896C5.94807 63.8968 6.65829 62.9934 7.02326 61.6793C7.38824 60.3652 7.57565 58.4455 7.57565 55.9302V20.5324C7.57565 17.5757 7.53619 15.1016 7.45728 13.0997C7.37837 11.0978 7.26 9.74263 7.10218 9.03426C6.83585 7.77151 6.22427 6.92969 5.24772 6.48824C4.27117 6.0468 2.52522 5.83121 0 5.83121V3.0388L14.9146 0Z" fill="#F3E8D2"/>
<path d="M178.698 44.5963V55.0268C178.698 58.0348 178.816 60.2523 179.053 61.6793C179.29 63.1063 179.872 64.02 180.789 64.4306C181.707 64.8413 183.166 65.1287 185.169 65.293V68.1675H164.178V65.293C166.23 65.1287 167.729 64.8413 168.676 64.4306C169.623 64.02 170.244 63.1474 170.531 61.8025C170.817 60.4576 170.965 58.4249 170.965 55.6838V45.1713C170.965 42.0503 170.925 39.4324 170.846 37.3279C170.767 35.2233 170.619 33.8066 170.412 33.0982C170.146 31.6712 169.623 30.7678 168.834 30.3879C168.045 30.0081 166.437 29.813 164.02 29.813V26.9385L176.883 23.8176L177.909 32.0305H178.303C180.671 29.2381 183.157 27.1746 185.761 25.8297C188.365 24.4849 191.245 23.8176 194.402 23.8176C197.716 23.8176 200.518 24.5259 202.806 25.9529C205.094 27.3799 206.663 29.3716 207.501 31.9484H207.817C209.76 29.3716 212.147 27.3799 214.959 25.9529C217.77 24.5259 220.729 23.8176 223.836 23.8176C226.312 23.8176 228.561 24.2385 230.583 25.0906C232.606 25.9427 234.144 27.1027 235.2 28.5811C236.147 29.8438 236.818 31.4967 237.212 33.5499C237.607 35.6032 237.804 38.4058 237.804 41.9682V55.0268C237.804 58.0348 237.932 60.242 238.198 61.6382C238.465 63.0344 239.057 63.9481 239.974 64.3896C240.891 64.831 242.351 65.1287 244.354 65.293V68.1675H223.363V65.293C225.365 65.1801 226.835 64.9132 227.782 64.4717C228.729 64.0303 229.35 63.1474 229.636 61.8025C229.922 60.4576 230.07 58.4249 230.07 55.6838V45.3355C230.07 39.0423 229.39 34.6279 228.019 32.1126C226.648 29.5974 224.26 28.3347 220.838 28.3347C218.579 28.3347 216.418 29.002 214.367 30.3469C212.315 31.6917 210.707 33.4781 209.553 35.7264C209.188 36.4347 208.912 37.1534 208.724 37.8617C208.537 38.5701 208.409 39.4325 208.33 40.4488C208.251 41.4652 208.212 42.8408 208.212 44.5963V55.0268C208.212 58.0348 208.34 60.242 208.606 61.6382C208.872 63.0344 209.464 63.9481 210.382 64.3896C211.299 64.831 212.788 65.1287 214.84 65.293V68.1675H193.849V65.293C195.852 65.1287 197.322 64.8413 198.268 64.4306C199.215 64.02 199.817 63.1474 200.083 61.8025C200.35 60.4576 200.478 58.4249 200.478 55.6838V45.3355C200.478 41.0648 200.192 37.6975 199.61 35.2336C199.028 32.7697 198.081 31.0039 196.769 29.9362C195.457 28.8685 193.662 28.3347 191.403 28.3347C189.144 28.3347 186.875 29.002 184.774 30.3469C182.673 31.6917 181.095 33.4781 180.04 35.7264C179.675 36.4347 179.398 37.1534 179.211 37.8617C179.024 38.5701 178.895 39.4325 178.816 40.4488C178.737 41.4652 178.698 42.8408 178.698 44.5963Z" fill="#F3E8D2"/>
<path d="M139.676 30.1825C147.833 30.1825 154.472 37.0917 154.472 45.5818C154.472 54.072 147.833 60.9811 139.676 60.9811H93.7582C85.6006 60.9811 78.962 54.072 78.962 45.5818C78.962 37.0917 85.6006 30.1825 93.7582 30.1825H139.676ZM139.676 22.9962H93.7582C81.7733 22.9962 72.0571 33.1084 72.0571 45.5818C72.0571 58.0553 81.7733 68.1675 93.7582 68.1675H139.676C151.661 68.1675 161.377 58.0553 161.377 45.5818C161.377 33.1084 151.661 22.9962 139.676 22.9962Z" fill="#F3E8D2"/>
<path d="M47.6436 30.1825C55.8012 30.1825 62.4398 37.0917 62.4398 45.5818C62.4398 54.072 55.8012 60.9811 47.6436 60.9811H46.4106C38.253 60.9811 31.6144 54.072 31.6144 45.5818C31.6144 37.0917 38.253 30.1825 46.4106 30.1825H47.6436ZM47.6436 22.9962H46.4106C34.4257 22.9962 24.7095 33.1084 24.7095 45.5818C24.7095 58.0553 34.4257 68.1675 46.4106 68.1675H47.6436C59.6285 68.1675 69.3447 58.0553 69.3447 45.5818C69.3447 33.1084 59.6285 22.9962 47.6436 22.9962Z" fill="#F3E8D2"/>
</svg>
